<?xml version="1.0" encoding="UTF-8"?>
<!DOCTYPE svg PUBLIC "-//W3C//DTD SVG 1.1//EN" "http://www.w3.org/Graphics/SVG/1.1/DTD/svg11.dtd">
<!-- Creator: CorelDRAW 2019 (64-Bit Not for commercial use) -->
<svg xmlns="http://www.w3.org/2000/svg" xml:space="preserve" width="19.7mm" height="19.7mm" version="1.1" style="shape-rendering:geometricPrecision; text-rendering:geometricPrecision; image-rendering:optimizeQuality; fill-rule:evenodd; clip-rule:evenodd"
viewBox="0 0 1970 1970"
 xmlns:xlink="http://www.w3.org/1999/xlink"
 xmlns:xodm="http://www.corel.com/coreldraw/odm/2003">
 <defs>
  <style type="text/css">
   <![CDATA[
    .fil0 {fill:#574E86}
    .fil2 {fill:#DBDCF0}
    .fil1 {fill:#FEFEFE}
   ]]>
  </style>
 </defs>
 <g id="Layer_x0020_1">
  <metadata id="CorelCorpID_0Corel-Layer"/>
  <path class="fil0" d="M191.44 1395.07c30.63,12.37 26.16,-14.72 26.32,12.7 26.92,-22.52 15.86,7.63 24.32,-31.54l1.41 -260.8c-208.99,2.73 -177.91,-5.83 -177.93,-291.8 -0.01,-156.11 -2.31,-314.14 0.31,-469.98 62.38,-31.46 5.88,-33.22 87.59,-38.71l890.04 0.72c38.23,67.9 38.81,43.54 37.97,152 -6,778.06 103.78,638.06 -483.77,646.8 -74.79,1.11 -88.41,19.39 -112.66,70.38l23.66 29.09c1.4,1.25 3.35,3.19 7.47,4.16 130.02,-42.27 -99.74,-51.21 310.96,-51.44 0.08,360.45 -13.46,307.77 444.83,304.66 91.75,-0.62 106.18,-15.37 155.57,34.94 40.53,41.29 59.66,53.27 100.29,90.01 37.24,33.68 61.13,61.22 98.17,91.85 38.26,31.65 62.42,72.94 130.05,39.87l21.58 -43.38c5.34,-23.22 3.55,-49.05 3.32,-73.05 -0.43,-46.84 -0.47,-93.85 -1.8,-140.65 209.31,5.81 178.68,-67.73 178.7,-291.67 0.08,-675.32 64.36,-622.27 -343.08,-622.29 -160.85,-0.01 -321.69,0 -482.54,0 0.08,-327.11 18.04,-304.87 -330.26,-304.87 -211.2,0 -424.84,-3.28 -635.67,-0.7 -217.66,2.68 -164.61,197.09 -164.61,470.66 0,378.28 -39.64,446.73 190.97,444.71l-1.21 228.33z"/>
  <path class="fil1" d="M242.08 1376.23c45.48,-24.29 78.73,-67.67 122.19,-101.5 26.83,-20.87 30.17,-24.02 52.78,-48.52 29.96,-32.46 23.51,-40.27 67.99,-41.37 24.25,-50.99 37.87,-69.27 112.66,-70.38 587.55,-8.74 477.77,131.26 483.77,-646.8 0.84,-108.46 0.26,-84.1 -37.97,-152l-890.04 -0.72c-81.71,5.49 -25.21,7.25 -87.59,38.71 -2.62,155.84 -0.32,313.87 -0.31,469.98 0.02,285.97 -31.06,294.53 177.93,291.8l-1.41 260.8z"/>
  <path class="fil2" d="M1132.29 658.53c-0.07,498.05 46.84,515.09 -241.76,507.39l-0.23 218.3c170.66,83.41 352.43,4.5 518.83,39.03 57.52,11.94 208.9,188.74 307.86,251.17l-0.72 -253.56c249.43,-2.79 189.98,-30.11 190.75,-571.84 0.06,-39.06 2.68,-88.93 -0.17,-126.72 -7.36,-97.36 -44.57,-102.28 -113.38,-102.85l-661.3 1.04 0.12 38.04z"/>
  <path class="fil0" d="M242.08 1376.23c-8.46,39.17 2.6,9.02 -24.32,31.54 -0.16,-27.42 4.31,-0.33 -26.32,-12.7 56.99,93.76 127.97,6.89 169.62,-34.4 28.73,-28.48 46.22,-37.86 75.34,-64.47 31.36,-28.67 46.04,-47.78 79.77,-78.11 -4.12,-0.97 -6.07,-2.91 -7.47,-4.16l-23.66 -29.09c-44.48,1.1 -38.03,8.91 -67.99,41.37 -22.61,24.5 -25.95,27.65 -52.78,48.52 -43.46,33.83 -76.71,77.21 -122.19,101.5z"/>
 </g>
</svg>
