<?xml version="1.0" encoding="UTF-8"?>
<!DOCTYPE svg PUBLIC "-//W3C//DTD SVG 1.1//EN" "http://www.w3.org/Graphics/SVG/1.1/DTD/svg11.dtd">
<!-- Creator: CorelDRAW 2019 (64-Bit Not for commercial use) -->
<svg xmlns="http://www.w3.org/2000/svg" xml:space="preserve" width="19.7mm" height="19.7mm" version="1.1" style="shape-rendering:geometricPrecision; text-rendering:geometricPrecision; image-rendering:optimizeQuality; fill-rule:evenodd; clip-rule:evenodd"
viewBox="0 0 1970 1970"
 xmlns:xlink="http://www.w3.org/1999/xlink"
 xmlns:xodm="http://www.corel.com/coreldraw/odm/2003">
 <defs>
  <style type="text/css">
   <![CDATA[
    .fil0 {fill:#574F82}
    .fil1 {fill:#FEFEFE}
   ]]>
  </style>
 </defs>
 <g id="Layer_x0020_1">
  <metadata id="CorelCorpID_0Corel-Layer"/>
  <path class="fil0" d="M1021.83 863.19c-0.05,187.46 -21.27,802.99 17.04,884.66 33.87,72.21 111.66,118.87 222.86,105.58 95.68,-11.44 146.69,-75.88 166.6,-164.5 73.13,38.08 259.67,49.93 253.32,-191.41 132.59,-5.31 203.94,-80.34 204.06,-215.23 0.07,-79.66 -12.13,-55.57 -24.55,-114.3 41.83,-65.17 77.98,-59.4 76.24,-177.84 -1.32,-90.04 -35.86,-129.77 -89.77,-165.45 96.09,-128.32 31.71,-329.89 -165.59,-330.56 5.31,-221.27 -106.31,-216.59 -254.03,-202.8 -28.75,-58.45 -55.35,-132.69 -168.24,-150.43 -334.23,-52.52 -237.91,506.87 -237.94,722.28z"/>
  <path class="fil0" d="M513.77 291.46c-159.04,-36.72 -247.47,26.3 -240.57,203.13 -94.64,0.53 -149.3,32.14 -184.36,96.34 -55.1,100.91 5.61,229.9 4.75,234.16 -0.34,1.68 -186.48,203.35 0.92,331.03 -16.95,63.63 -50.22,158.39 -7.81,235.62 34.86,63.5 97.8,99.6 186.05,106.88 -6.82,228.79 167.44,233.37 253.62,189.92 22.95,104.96 92.98,182.57 240.07,165.06 131.2,-15.61 166.43,-115.98 166.45,-241.11l0.13 -1257.3c0,-122.47 -78.58,-197.66 -181.31,-214.21 -63.89,-10.3 -112.89,13.3 -148.26,36.9 -28.49,19.01 -32.18,24.26 -50.09,51.58 -10,15.24 -9.68,17.06 -18.94,31.73l-20.65 30.27z"/>
  <path class="fil1" d="M742.69 532.99c-80.9,51.33 -175.68,-34.85 -207.28,-110.35 -13.19,-31.53 -16.1,-52 -46.5,-68.28 -96.71,-51.76 -188.07,60.18 -151.86,138.66 22.28,48.29 35.34,20.26 50.34,78.69l-27.64 23.44c-64.11,-15.47 -25.59,-35.97 -88.44,-41.76 -70.65,-6.51 -141.29,54.34 -147.72,134.32 -4.08,50.77 23.45,70.89 36.13,110.36l100.77 0.73 -0.12 51.69c-20.04,11.37 -15.91,-0.24 -58.88,6.48 -173.61,27.13 -157.69,250.28 -14.42,282.16l54.09 9.27c2.82,0.74 7.28,2.63 9.51,3.29 2.18,0.66 6.44,1.82 9.21,3.6l0.13 50.87c-52.51,0.08 -63.51,7.13 -99.92,-11.5 -30.7,53.71 -74.27,124.5 19.31,206.1 24.88,21.7 69.58,41.58 111.21,26.9 66.86,-23.57 27.29,-56.18 96.65,-5.67 -14.91,64.2 -84.15,66.93 -50.54,150.61 22.06,54.93 76.37,91.91 140.51,68.18 79.68,-29.47 83.64,-183.79 216.84,-191.94 53,-3.24 25.94,-3.14 48.14,11.25 -0.08,97.45 -28.26,16.61 -105.23,85.01 -201.97,179.49 231.84,416.7 232.84,80.8 0.8,-263.72 33.31,-336.47 -80.21,-390.98 -59.64,-28.63 -41.18,3.21 -47.35,-54.23 16.34,-10.55 -1.37,-6.86 28.43,-10.84 17.53,-2.34 13.82,-2.47 30.77,0.11 26.35,4.01 31.28,14.85 68.47,23.38l-0.93 -380.13c-36.66,20.74 -71.6,35.22 -128.21,38.95 5.05,-124.89 15.29,-22.68 93.96,-99.67 60.31,-59.02 53.65,-447.2 -6.93,-507.63 -129.48,-129.15 -337.85,69.81 -203,202.35 78.23,76.9 108.17,-4.63 117.87,85.78z"/>
  <path class="fil1" d="M1212.24 850.99c-57.06,-1.29 -90.43,-18.25 -126.56,-37.95l-0.3 381.27c27.17,-7.93 35.55,-16.9 57.41,-22.26 56.94,-13.95 58.43,1.18 69.49,8.64 -5.04,60.04 18.8,23.01 -38.77,50.31 -82,38.89 -88.78,13.69 -87.9,203.64 0.63,135.87 -24.96,282.32 57.34,336.28 112.46,73.74 207.51,-29.52 219.57,-85.57 14.83,-68.89 -11.64,-110.02 -45.12,-140.14 -78.34,-70.46 -102.97,13.28 -105.5,-85.12 0.28,-0.18 3.68,-33.64 88.2,-0.29 122.63,48.38 92.26,142.77 168.03,177.32 90.85,41.42 186.41,-59.9 149.59,-136.66 -22.26,-46.4 -35.4,-19.46 -50.89,-78.61 65.54,-48.73 31.17,-16.95 97.01,5.85 44.56,15.42 83.74,-4.43 110.42,-27.91 94.31,-83.02 52.8,-147.93 21.36,-206.32 -27.95,15.85 -64.1,23.94 -101.01,-0.08 0.25,-103.79 39.04,-10.36 124.22,-79.29 86.37,-69.9 75.27,-175.51 5.94,-228.63 -39.65,-30.38 -67.61,-27.68 -99.09,-30.33 -2.35,-0.19 -6.31,-0.24 -8.48,-0.46l-15.31 -2.43c-1.3,-0.2 -5.12,-0.47 -7.24,-1.76l0.06 -51.35 100.92 -0.52c10.8,-40.91 35.73,-53.38 36.29,-100.67 0.71,-61 -51.84,-141.42 -137.14,-140.93 -83.13,0.47 -33.16,21.04 -102.39,40.9l-23.53 -29.02c18.2,-60.42 77.51,-65.96 48.96,-148.79 -16.36,-47.47 -69.37,-100.75 -143.33,-70.44 -54.1,22.16 -48.03,87.83 -93.11,136.77 -19.97,21.68 -39.89,37.02 -66.39,48.06 -16.43,6.84 -24.32,12.07 -52.27,11.91l-51.41 -13.42c7.65,-64.42 -19.38,-21.92 43.07,-46.96 41.81,-16.77 142.38,-54.2 117.99,-163.35 -21.62,-96.76 -144,-165.85 -238.58,-84 -68.35,59.15 -71.11,458.22 -21.2,508.19 76.77,76.84 100.92,-12.8 99.65,104.12z"/>
  <path class="fil0" d="M1326.02 888.59l0.87 50.86c164.8,2.59 213.26,-77.83 217.03,-228.56l-52.25 -1.03c-8.72,13.71 -5.34,2.95 -11.16,28.06 -19.68,84.83 -18.8,113.96 -115.61,137.62 -3.6,0.88 -7.36,1.12 -10.78,2.04l-28.1 11.01z"/>
  <path class="fil0" d="M628.87 939.01l-0.29 -50.42c-24.45,-15.92 -34.33,-9.61 -60.49,-16.84 -15.08,-4.16 -44.51,-19.8 -56.02,-32.13 -41.46,-44.41 -28.84,-97.42 -49.1,-129.15l-51.62 -0.32c2.04,157.13 56.9,231.95 217.52,228.86z"/>
  <path class="fil0" d="M1326.63 1117.18l57.96 18.42c33.09,10.89 31.95,13.11 53.67,34.86 47.17,47.25 33.03,60.42 42.43,97.21l6.69 18.87c0.71,2.03 2.56,5.85 4.29,8.52l51.58 -0.36c-0.36,-41.68 4.37,-58.82 -8.26,-93.28 -34.45,-93.93 -88.15,-131.31 -209.54,-136.35l1.18 52.11z"/>
  <path class="fil0" d="M411.48 1295.68l51.49 0.06c32.27,-49.86 -10.58,-123.7 127.93,-164.69 3.31,-0.98 7.11,-1.44 10.26,-2.43l27.48 -61.46c-61.41,-1.71 -132.4,21.29 -163.25,52.55 -12.83,12.99 -36.34,53.19 -43.05,70.9 -11.29,29.8 -10.6,57.91 -10.86,105.07z"/>
 </g>
</svg>
