<?xml version="1.0" encoding="UTF-8"?>
<!DOCTYPE svg PUBLIC "-//W3C//DTD SVG 1.1//EN" "http://www.w3.org/Graphics/SVG/1.1/DTD/svg11.dtd">
<!-- Creator: CorelDRAW 2019 (64-Bit Not for commercial use) -->
<svg xmlns="http://www.w3.org/2000/svg" xml:space="preserve" width="15mm" height="15mm" version="1.1" style="shape-rendering:geometricPrecision; text-rendering:geometricPrecision; image-rendering:optimizeQuality; fill-rule:evenodd; clip-rule:evenodd"
viewBox="0 0 1500 1500"
 xmlns:xlink="http://www.w3.org/1999/xlink"
 xmlns:xodm="http://www.corel.com/coreldraw/odm/2003">
 <defs>
  <style type="text/css">
   <![CDATA[
    .str0 {stroke:#547D37;stroke-width:75;stroke-miterlimit:22.9256}
    .fil0 {fill:none}
   ]]>
  </style>
 </defs>
 <g id="Layer_x0020_1">
  <metadata id="CorelCorpID_0Corel-Layer"/>
  <path class="fil0 str0" d="M999.02 1440.82c126.49,-3.02 152.21,-11.23 170.17,-25.34 17.97,-14.1 28.17,-34.1 32.83,-54.57 4.65,-20.47 3.76,-41.42 0.49,-54.26 -3.27,-12.85 -8.92,-17.59 -13.67,-21.29 -4.74,-3.71 -8.58,-6.38 -2.48,-10.61 6.1,-4.24 22.15,-10.04 33.32,-18.07 11.18,-8.02 17.49,-18.28 22.63,-30.12 5.14,-11.85 9.1,-25.3 10.32,-40.19 1.21,-14.89 -0.33,-31.22 -3.59,-44.62 -3.26,-13.4 -8.24,-23.87 -13.5,-29.9 -5.25,-6.03 -10.78,-7.62 -7.59,-9.68 3.19,-2.07 15.09,-4.62 26.1,-13.12 11,-8.49 21.09,-22.93 28.11,-36.32 7.02,-13.38 10.97,-25.72 13.48,-40.58 2.51,-14.86 3.58,-32.26 2.13,-47.85 -1.46,-15.58 -5.46,-29.37 -10.91,-39.76 -5.45,-10.38 -12.35,-17.37 -17.92,-21.64 -5.56,-4.28 -9.79,-5.84 -7.32,-9.41 2.48,-3.56 11.66,-9.13 20.26,-18.04 8.61,-8.91 16.62,-21.17 21.53,-35.61 4.91,-14.45 6.72,-31.09 7.58,-46.81 0.86,-15.73 0.77,-30.55 -2.93,-44.98 -3.71,-14.43 -11.03,-28.47 -20.24,-40.87 -9.2,-12.4 -20.3,-23.18 -32.98,-33.24 -12.68,-10.06 -26.94,-19.41 -43.31,-25.84 -16.36,-6.43 -34.82,-9.94 -82.19,-12.15 -47.38,-2.21 -123.69,-3.13 -166.32,-6.74 -42.62,-3.6 -51.58,-9.88 -57.61,-19.17 -6.02,-9.29 -9.12,-21.57 -8.05,-33.69 1.07,-12.11 6.3,-24.05 18.42,-42.43 12.11,-18.38 31.12,-43.21 47.67,-70.4 16.55,-27.19 30.64,-56.74 41.65,-84.77 11.01,-28.04 18.93,-54.56 23.46,-77.91 4.52,-23.34 5.65,-43.51 4.33,-61.23 -1.33,-17.72 -5.11,-32.98 -10.26,-49.1 -5.15,-16.13 -11.68,-33.11 -18.08,-46.76 -6.41,-13.64 -12.69,-23.95 -18.92,-32.41 -6.23,-8.46 -12.4,-15.06 -19.62,-20.11 -7.22,-5.04 -15.49,-8.54 -24.71,-10.48 -9.22,-1.94 -19.41,-2.32 -29.54,-0.29 -10.14,2.03 -20.22,6.46 -29.15,13.14 -8.93,6.69 -16.7,15.61 -22.25,25.14 -5.56,9.52 -8.91,19.65 -13.16,33.64 -4.25,14 -9.41,31.87 -14.84,48.99 -5.42,17.12 -11.11,33.5 -18.06,48.09 -6.95,14.59 -15.17,27.4 -23.56,40.12 -8.4,12.71 -16.98,25.32 -27.06,38.84 -10.08,13.51 -21.66,27.92 -32.82,40.02 -11.16,12.11 -21.91,21.9 -31.69,29.4 -9.78,7.5 -18.58,12.7 -29.09,19.81 -10.52,7.12 -22.73,16.14 -32.91,25.3 -10.18,9.16 -18.33,18.45 -26.39,28.57 -8.07,10.13 -16.07,21.09 -25.51,35.26 -9.44,14.18 -20.34,31.57 -50.23,73.32 -29.89,41.75 -78.77,107.86 -105.85,143.09 -27.08,35.23 -32.35,39.57 -40.29,42.84 -7.93,3.28 -18.53,5.48 -31.8,6.71 -13.27,1.22 -29.21,1.47 -45.32,1.34 -16.11,-0.12 -32.41,-0.62 -40.59,1.16 -8.19,1.79 -8.26,5.86 -9.91,105.31 -1.64,99.44 -4.85,294.25 -4.56,394.29 0.29,100.04 4.07,105.3 14.11,108.27 10.04,2.97 26.33,3.66 36.97,4.42 10.63,0.76 15.62,1.6 21.2,4.95 5.59,3.35 11.77,9.21 18.22,15.73 6.45,6.51 13.17,13.68 20.3,18.36 7.14,4.67 14.69,6.86 23.18,8.59 8.48,1.74 17.91,3.04 136.25,4.77 118.33,1.74 345.59,3.91 472.07,0.89z"/>
 </g>
</svg>
