<svg width="267px" height="31px" viewBox="0 0 267 31" version="1.1" xmlns="http://www.w3.org/2000/svg" xmlns:xlink="http://www.w3.org/1999/xlink">
    <!-- Generator: Sketch 51.2 (57519) - http://www.bohemiancoding.com/sketch -->
    <title>logo</title>
    <desc>Created with Sketch.</desc>
    <defs>
        <polygon id="path-1" points="158 0 177 0 177 28 158 28"></polygon>
    </defs>
    <g id="Symbols" stroke="none" stroke-width="1" fill="none" fill-rule="evenodd">
        <g id="top-nav---purple" transform="translate(-100.000000, -35.000000)">
            <g id="logo" transform="translate(100.000000, 35.000000)">
                <path d="M43.8117603,14.5583187 L47.8709635,4.41795096 L51.8924104,14.5583187 L43.8117603,14.5583187 Z M81.0788286,22.4896673 L74.5180702,12.9119965 L83.8253982,1 L76.3183224,1 L76.3183224,1.12294221 C79.1122881,1.44605954 77.7169119,3.61567426 76.690262,4.98774081 L72.6318621,10.3782837 L66.6832376,1.96935201 C66.2751483,1.32390543 65.9048153,1 64.6331512,1 L59.8774649,1 C61.5989912,1.7676007 62.7477465,3.37530648 63.8113493,4.90735552 L69.7607772,13.3525394 L60.507272,24.754641 C59.9626173,23.7986865 59.5577413,22.7268827 59.1126991,21.6416813 L50.5829901,1 L44.1009575,1 L44.1009575,1.12294221 C46.0715146,1.72504378 45.292289,3.41628722 44.7163047,4.8647986 L37.8679557,21.6416813 C37.2269021,23.2722417 36.6790341,24.8736427 35.5688384,26.0865149 C35.0723834,25.3220665 34.9301948,24.4496497 34.772743,23.2556918 L32.0679464,3.49509632 C32.0679464,2.57145359 32.3563402,1.40665499 33.3380038,1.12294221 L33.3380038,1 L26.2438373,1 L26.2438373,1.04334501 C26.2438373,1.89290718 25.9562468,2.68887916 25.6252767,3.53528897 L18.821914,20.5990368 L11.1099902,2.85043783 C10.8633693,2.29089317 10.5372192,1.68485114 10.5372192,1.04334501 L10.5372192,1 L3.35870347,1 L3.35870347,1.12294221 C5.24732147,2.12697023 4.79745925,3.74098074 4.63117089,4.8647986 L2.29429732,21.726007 C1.96573724,23.8964098 1.71911634,25.8650613 0,27.3545534 L0,27.4774956 L6.68206062,27.4774956 L6.68206062,27.3545534 C4.75407968,26.5120841 5.04167017,24.7388792 5.3686236,22.2902802 L7.70710383,4.98774081 L15.5009668,23.1288091 C16.4834337,25.3890543 17.0602214,26.4726795 19.1095045,28 L28.2955303,4.94676007 L30.6324039,24.3377408 C30.6324039,25.7082312 30.385783,26.9124343 28.9494372,27.3545534 L28.9494372,27.4774956 L33.891495,27.4774956 L36.8686189,27.4774956 L41.4363271,27.4774956 L41.4363271,27.3545534 C39.4665733,26.6318739 39.7541637,25.4631349 40.6137219,23.2099825 L42.7473542,17.5380911 L53.0853487,17.5380911 L55.2985101,23.2099825 C56.4046892,26.0321366 56.7324459,26.4726795 54.7241325,27.3545534 L54.7241325,27.4774956 L58.3977395,27.4774956 L63.1309327,27.4774956 L66.3538742,27.4774956 L66.3538742,27.3545534 C63.8547289,26.3883538 65.0838167,24.6608581 66.0703003,23.3723292 L71.769894,15.9690018 L78.6198496,26.0660245 C78.9066368,26.4293345 79.6039232,27.4774956 81.28207,27.4774956 L86,27.4774956 C83.6631264,26.6318739 82.390659,24.4181261 81.0788286,22.4896673 Z" id="Fill-1" fill="#FEFEFE"></path>
                <path d="M87.8514239,22.2555585 C87.8514239,24.1007233 88.1040033,27.1376909 86,27.8746317 L86,28 L94,28 L94,27.8746317 C91.898473,27.0983123 92.1518778,24.1007233 92.1518778,22.2555585 L92.1518778,6.78381998 C92.1518778,4.94186981 91.898473,1.91133137 94,1.12536834 L94,1 L86,1 L86,1.12536834 C88.1477507,1.91133137 87.8514239,4.90008036 87.8514239,6.78381998 L87.8514239,22.2555585 Z" id="Fill-3" fill="#FEFEFE"></path>
                <path d="M113.891782,20.5984647 L106.156913,2.85038382 C105.911042,2.29085549 105.576496,1.68483115 105.576496,1.04413181 L105.576496,1 L98.376901,1 L98.376901,1.12293862 C100.271319,2.12693733 99.8182709,3.74090073 99.6497887,4.86547386 L97.3087716,21.7261901 C96.9782561,23.8965296 96.7283542,25.8651236 95,27.3537842 L95,27.4775109 L101.708658,27.4775109 L101.708658,27.3537842 C99.7779642,26.5121275 100.064142,24.7389743 100.393045,22.2896588 L102.739705,4.98841248 L110.560831,23.1281632 C111.542703,25.3883424 112.123927,26.471936 114.17796,28 L123.39773,4.94743294 L125.745196,24.3370596 C125.745196,25.70751 125.496906,26.9124661 124.060373,27.3537842 L124.060373,27.4775109 L132,27.4775109 L132,27.3537842 C130.355484,26.228423 130.144276,25.1440413 129.903242,23.2550422 L127.184147,3.4950235 C127.184147,2.57140772 127.47355,1.40664312 128.459454,1.12293862 L128.459454,1 L121.342085,1 L121.342085,1.04413181 C121.342085,1.89366919 121.051876,2.68961793 120.727003,3.53521497 L113.891782,20.5984647 Z" id="Fill-5" fill="#FEFEFE"></path>
                <path d="M150.060463,28.3384481 L156,28.3384481 L156,28.2115083 C153.93631,27.4254577 154.177561,24.3894798 154.177561,22.5219994 L154.177561,6.85632084 C154.177561,4.94815461 153.93631,1.9219413 156,1.12693984 L155.955705,1 L148.287857,1 L148.287857,1.12693984 C150.30567,1.9219413 150.060463,4.94815461 150.060463,6.81807614 L150.060463,19.3224644 C150.060463,20.8164487 150.102386,21.8580064 149.212523,23.1046207 C147.878915,25.0551003 145.581883,26.0128451 143.317282,26.0128451 C139.160634,26.0128451 136.896823,23.4349898 136.896823,17.9082244 L136.896823,6.81807614 C136.896823,4.94815461 136.656363,1.9219413 138.673385,1.12693984 L138.673385,1 L131,1 L131,1.12693984 C133.062899,1.9219413 132.778143,4.94815461 132.778143,6.81807614 L132.778143,17.9082244 C132.778143,20.8994478 132.69509,23.6799186 134.837088,26.0917756 C136.656363,28.1293229 139.480985,29 142.145827,29 C144.973613,29 148.287857,28.0056379 150.060463,25.5978495 L150.060463,28.3384481 Z" id="Fill-7" fill="#FEFEFE"></path>
                <mask id="mask-2" fill="white">
                    <use xlink:href="#path-1"></use>
                </mask>
                <g id="Clip-10"></g>
                <path d="M174.686759,0.891917213 C172.769092,0.2806121 170.731032,0 168.736751,0 C163.868705,0 158.71766,1.94759106 158.71766,7.06299861 C158.71766,15.6618119 172.450132,14.5274395 172.450132,20.8575079 C172.450132,23.698606 169.018968,25.0809982 166.744034,25.0809982 C163.630267,25.0809982 160.358583,23.7812793 158,21.7096783 L159.16092,26.7837493 C161.434291,27.6351248 163.868705,28 166.303119,28 C172.526745,28 177,23.943446 177,19.5999205 C177,12.0925532 163.269092,12.1744315 163.269092,6.61386026 C163.269092,3.81330381 166.140512,2.91741192 168.417791,2.91741192 C170.651292,2.91741192 173.126358,3.8562303 174.686759,5.47710303 L174.686759,0.891917213 Z" id="Fill-9" fill="#FEFEFE"></path>
                <path d="M178.592906,2.87040858 L178.959992,2.87040858 C179.274283,2.87040858 179.582801,2.85637639 179.582801,2.47585638 C179.582801,2.15641766 179.30233,2.11762278 179.059806,2.11762278 L178.592906,2.11762278 L178.592906,2.87040858 Z M178.239843,1.82872472 L179.1192,1.82872472 C179.674366,1.82872472 179.936688,2.04828725 179.936688,2.49401568 C179.936688,2.91828312 179.666942,3.09905076 179.318829,3.13454395 L179.991132,4.16714816 L179.608373,4.16714816 L178.977315,3.16178291 L178.592906,3.16178291 L178.592906,4.16714816 L178.239843,4.16714816 L178.239843,1.82872472 Z M179.000412,4.70945109 C179.91524,4.70945109 180.643638,3.96574494 180.643638,2.99834915 C180.643638,2.03095336 179.91524,1.28642179 179.000412,1.28642179 C178.08311,1.28642179 177.360487,2.03095336 177.360487,2.99834915 C177.360487,3.96574494 178.08311,4.70945109 179.000412,4.70945109 Z M179.000412,1 C180.085997,1 181,1.85926537 181,2.99834915 C181,4.14073463 180.085997,5 179.000412,5 C177.908229,5 177,4.14073463 177,2.99834915 C177,1.85926537 177.908229,1 179.000412,1 Z" id="Fill-12" fill="#FEFEFE"></path>
                <polygon id="Fill-14" fill="#FEFEFE" points="188 28 189 28 189 1 188 1"></polygon>
                <polygon id="Fill-16" fill="#FEFEFE" points="200 15 201.672474 15 201.672474 20.1856523 201.811847 20.1856523 207.264403 15 209.598898 15 203.64071 20.5419787 210 27 207.560165 27 201.811847 21 201.672474 21 201.672474 27 200 27"></polygon>
                <path d="M210.317829,27 L211.682171,27 L211.682171,18.9889937 L210.317829,18.9889937 L210.317829,27 Z M211,15 C211.545455,15 212,15.5070755 212,16.115566 C212,16.7248428 211.545455,17.2311321 211,17.2311321 C210.453841,17.2311321 210,16.7248428 210,16.115566 C210,15.5070755 210.453841,15 211,15 Z" id="Fill-17" fill="#FEFEFE"></path>
                <path d="M215,19.1975498 L216.500166,19.1975498 L216.500166,20.3981623 L216.533503,20.3981623 C216.916491,19.575804 217.916602,19 219.133016,19 C220.667294,19 222,19.9050536 222,21.9793262 L222,27 L220.500609,27 L220.500609,22.3905054 C220.500609,20.9257274 219.650127,20.3820827 218.699635,20.3820827 C217.449884,20.3820827 216.500166,21.1730475 216.500166,22.9831547 L216.500166,27 L215,27 L215,19.1975498 Z" id="Fill-18" fill="#FEFEFE"></path>
                <path d="M225.734371,23.1160869 C225.734371,24.7020949 226.818794,25.7438017 228.553869,25.7438017 C230.288945,25.7438017 231.373367,24.7020949 231.373367,23.1160869 C231.373367,21.52931 230.288945,20.387661 228.553869,20.387661 C226.818794,20.387661 225.734371,21.52931 225.734371,23.1160869 Z M233,26.9669421 C233,29.3301941 231.120335,31 228.318491,31 C226.692698,31 225.33675,30.6194503 224.126232,29.5954257 L225.228308,28.3384586 C226.077351,29.1649049 227.035678,29.6115702 228.282343,29.6115702 C230.704219,29.6115702 231.373367,28.2231405 231.373367,26.9008264 L231.373367,25.7438017 L231.319566,25.7438017 C230.704219,26.685566 229.529849,27.1322314 228.354638,27.1322314 C225.842814,27.1322314 223.981643,25.3970786 224.000137,23.1160869 C224.000137,20.8012685 225.698224,19 228.354638,19 C229.511355,19 230.704219,19.4797232 231.337219,20.3215453 L231.373367,20.3215453 L231.373367,19.1983471 L233,19.1983471 L233,26.9669421 Z" id="Fill-19" fill="#FEFEFE"></path>
                <path d="M241.373342,23.7855499 C241.373342,22.1605499 240.288903,20.9914002 238.553802,20.9914002 C236.8187,20.9914002 235.734261,22.1605499 235.734261,23.7855499 C235.734261,25.4097626 236.8187,26.578125 238.553802,26.578125 C240.288903,26.578125 241.373342,25.4097626 241.373342,23.7855499 Z M243,27.796875 L241.373342,27.796875 L241.373342,26.6458333 L241.337194,26.6458333 C240.705025,27.5087209 239.511302,28 238.354568,28 C235.698113,28 234,26.1553416 234,23.7855499 C234,21.3811168 235.716608,19.5703125 238.354568,19.5703125 C239.584439,19.5703125 240.759667,20.0954457 241.337194,20.9236919 L241.373342,20.9236919 L241.373342,15 L243,15 L243,27.796875 Z" id="Fill-20" fill="#FEFEFE"></path>
                <path d="M249.5,26.4817859 C251.213455,26.4817859 252.285714,25.2351018 252.285714,23.5 C252.285714,21.7648982 251.213455,20.5165328 249.5,20.5165328 C247.785714,20.5165328 246.714286,21.7648982 246.714286,23.5 C246.714286,25.2351018 247.785714,26.4817859 249.5,26.4817859 M249.5,19 C252.017442,19 254,21.0049505 254,23.5 C254,25.9942089 252.017442,28 249.5,28 C246.981728,28 245,25.9942089 245,23.5 C245,21.0049505 246.981728,19 249.5,19" id="Fill-21" fill="#FEFEFE"></path>
                <path d="M255,19.1975498 L256.407821,19.1975498 L256.407821,20.4157734 L256.441341,20.4157734 C256.592569,19.9540582 257.563856,19 258.988827,19 C260.162011,19 260.96648,19.4938744 261.469274,20.4486983 C261.989217,19.4938744 263.028323,19 263.982461,19 C266.430168,19 267,20.712098 267,22.4563553 L267,27 L265.49162,27 L265.49162,22.6546708 C265.49162,21.4693721 265.240613,20.3820827 263.782123,20.3820827 C262.324412,20.3820827 261.7538,21.3537519 261.7538,22.7366003 L261.7538,27 L260.24542,27 L260.24542,22.9173047 C260.24542,21.4364472 260.027933,20.3820827 258.569443,20.3820827 C257.480447,20.3820827 256.50838,21.1898928 256.50838,22.9502297 L256.50838,27 L255,27 L255,19.1975498 Z" id="Fill-22" fill="#FEFEFE"></path>
                <path d="M201.576012,1 L201.576012,8.17355372 C201.576012,9.62809917 202.298701,11.5123967 204.499618,11.5123967 C206.700535,11.5123967 207.423224,9.62809917 207.423224,8.17355372 L207.423224,1 L209,1 L209,8.42110321 C209,11.131847 207.045073,13 204.499618,13 C201.954163,13 200,11.131847 200,8.42110321 L200,1 L201.576012,1 Z" id="Fill-23" fill="#FEFEFE"></path>
                <path d="M211,5.19753086 L212.500775,5.19753086 L212.500775,6.39879414 L212.534109,6.39879414 C212.917054,5.5765145 213.917054,5 215.133333,5 C216.667442,5 218,5.90573261 218,7.97904106 L218,13 L216.500775,13 L216.500775,8.3909465 C216.500775,6.92554311 215.650388,6.38271605 214.7,6.38271605 C213.450388,6.38271605 212.500775,7.17283951 212.500775,8.98353909 L212.500775,13 L211,13 L211,5.19753086 Z" id="Fill-24" fill="#FEFEFE"></path>
                <path d="M221.318534,13 L222.682875,13 L222.682875,4.98873239 L221.318534,4.98873239 L221.318534,13 Z M222,1 C222.545455,1 223,1.50704225 223,2.11549296 C223,2.72394366 222.545455,3.23098592 222,3.23098592 C221.454545,3.23098592 221,2.72394366 221,2.11549296 C221,1.50704225 221.454545,1 222,1 Z" id="Fill-25" fill="#FEFEFE"></path>
                <path d="M229.945205,6.75015029 L227.571062,6.75015029 L227.571062,10.5705591 C227.571062,11.5128494 227.571062,12.5080403 228.821918,12.5080403 C229.208904,12.5080403 229.669521,12.4543132 230,12.2592426 L230,13.7164863 C229.61387,13.9297415 228.840753,14 228.509418,14 C225.951199,14 225.914384,12.4898557 225.914384,11.1392396 L225.914384,6.75015029 L224,6.75015029 L224,5.36399158 L225.914384,5.36399158 L225.914384,3 L227.571062,3 L227.571062,5.36399158 L229.945205,5.36399158 L229.945205,6.75015029 Z" id="Fill-26" fill="#FEFEFE"></path>
                <path d="M237.387179,8.79518072 C237.353562,7.36789017 236.613994,6.30120482 235.084042,6.30120482 C233.588488,6.30120482 232.613603,7.65704679 232.613603,8.79518072 L237.387179,8.79518072 Z M232.613603,10.0963855 C232.613603,11.5968058 233.907456,12.5903614 235.302941,12.5903614 C236.227011,12.5903614 236.899345,12.0843373 237.488029,11.3076492 L238.630998,12.2465677 C237.790579,13.4216867 236.630411,14 235.100459,14 C232.579986,14 231,12.0481928 231,9.50042029 C231,6.93415523 232.730871,5 235.117659,5 C237.924265,5 239,7.31325301 239,9.51807229 L239,10.0963855 L232.613603,10.0963855 Z" id="Fill-27" fill="#FEFEFE"></path>
                <path d="M247.373342,8.7855499 C247.373342,7.1605499 246.288903,5.9921875 244.553802,5.9921875 C242.8187,5.9921875 241.734261,7.1605499 241.734261,8.7855499 C241.734261,10.4105499 242.8187,11.578125 244.553802,11.578125 C246.288903,11.578125 247.373342,10.4105499 247.373342,8.7855499 Z M249,12.796875 L247.373342,12.796875 L247.373342,11.6458333 L247.337194,11.6458333 C246.704185,12.5087209 245.511302,13 244.354568,13 C241.698113,13 240,11.1553416 240,8.7855499 C240,6.38190407 241.716608,4.5703125 244.354568,4.5703125 C245.584439,4.5703125 246.759667,5.09544574 247.337194,5.92447917 L247.373342,5.92447917 L247.373342,0 L249,0 L249,12.796875 Z" id="Fill-28" fill="#FEFEFE"></path>
            </g>
        </g>
    </g>
</svg>