<?xml version="1.0" encoding="UTF-8"?>
<!DOCTYPE svg PUBLIC "-//W3C//DTD SVG 1.1//EN" "http://www.w3.org/Graphics/SVG/1.1/DTD/svg11.dtd">
<!-- Creator: CorelDRAW 2019 (64-Bit Not for commercial use) -->
<svg xmlns="http://www.w3.org/2000/svg" xml:space="preserve" width="19.7mm" height="19.7mm" version="1.1" style="shape-rendering:geometricPrecision; text-rendering:geometricPrecision; image-rendering:optimizeQuality; fill-rule:evenodd; clip-rule:evenodd"
viewBox="0 0 1970 1970"
 xmlns:xlink="http://www.w3.org/1999/xlink"
 xmlns:xodm="http://www.corel.com/coreldraw/odm/2003">
 <defs>
  <style type="text/css">
   <![CDATA[
    .fil0 {fill:#574E83}
    .fil1 {fill:#E4E2F0}
    .fil2 {fill:#FEFEFE}
   ]]>
  </style>
 </defs>
 <g id="Layer_x0020_1">
  <metadata id="CorelCorpID_0Corel-Layer"/>
  <path class="fil0" d="M800 1853.22c31.67,-69.3 11.02,-755.64 12.36,-900.76 0.98,-105.96 -0.01,-113.43 -43.47,-184.94 -24.2,-39.83 -217.54,-391.91 -217.61,-425.61 -0.05,-22.8 3.32,-34.68 33.79,-33.65 28.86,0.98 12.54,-3.99 31.7,12.89 67.07,59.12 122.81,340.73 373.62,339.35 261.6,-6.88 300.94,-340.5 383.05,-351.63 66.75,-9.04 47.23,38.88 23.88,84.86 -13.05,25.7 -25.92,47.95 -41.87,73.88l-158.23 298.14c-42.24,85.36 -42.93,63.18 -42.28,186.74 0.67,127.42 -19.86,843.07 13.44,901.44 71.03,-6.13 50.97,-40.72 50.76,-190.07l-0.99 -750.09c1.44,-94.86 184.27,-391.97 238.4,-497.97 56.94,-111.5 30.81,-93.97 -20.36,-175.52 -130.65,4.51 -117.05,-7.58 -242.75,204.1 -30.93,52.08 -38.96,82.58 -96.1,120.16 -54.42,35.78 -118.18,44.18 -185.44,21.48 -88.98,-30.04 -155.1,-163.16 -202.61,-241.48 -30.48,-50.23 -44.58,-105.66 -125.54,-105.64 -69.44,0.03 -115.76,47.11 -100.34,125.89l232.16 443.95c44.91,80.44 33.39,76.33 33.17,194.69l-0.03 673.13c-0.46,163.94 -21.2,174.36 51.29,176.66z"/>
  <path class="fil1" d="M800 1853.22l165.22 0.62c-34.45,-74.36 -12.89,-475.67 -13.18,-596.39 14.46,-40.56 -29.34,-20.77 40.61,-25.65l-2.26 -571.3c-250.81,1.38 -306.55,-280.23 -373.62,-339.35 -19.16,-16.88 -2.84,-11.91 -31.7,-12.89 -30.47,-1.03 -33.84,10.85 -33.79,33.65 0.07,33.7 193.41,385.78 217.61,425.61 43.46,71.51 44.45,78.98 43.47,184.94 -1.34,145.12 19.31,831.46 -12.36,900.76z"/>
  <path class="fil0" d="M12.89 571.46c-3.8,168.36 215.16,380.64 214.98,520.89 -0.21,132.77 -20.05,692.52 12.16,762.65l38.96 -1.1c36.4,-70.03 12.18,-603.98 13.33,-736.49 1.09,-125.69 -25.89,-149.93 -101.43,-279.95l-96.51 -184.33c-21.19,-39.89 -30.23,-18.17 -5.34,-68.22 39.64,22.28 30.88,15.22 57.62,55.19 22.13,33.08 27.73,47.06 48.17,79.34 30.92,48.83 68.31,112.77 117.34,136.65 145.26,70.72 316.12,-26.97 303.81,-89.5l-19.49 -30.85c-82.99,23.28 -37.32,77.87 -165.1,78.25 -159.93,0.49 -168.63,-150.22 -256.99,-252.5 -70.59,-81.71 -107.52,-28.44 -161.51,9.97z"/>
  <path class="fil0" d="M1371.19 735.61c-8.86,9.67 -12.27,-11.35 -19.64,30.54 -12.24,69.5 171.71,158.62 302.09,88.12 73.34,-39.66 72.62,-71.51 116.64,-138.14 32.53,-49.23 72.99,-150.48 107.74,-118.14 13.05,20.25 8.01,-9.04 4.74,21.27 -1.83,16.93 -6.08,21.82 -10.97,32.16l-158.32 300.88c-40.62,74.28 -39.91,35.98 -38.22,152.41 3.62,248.98 1.22,500.67 0.48,749.87l51.28 -0.06 -0.07 -673.27c0.02,-128.86 -5.67,-103.96 38.12,-190.02l176.36 -332.6c21.92,-47.71 18.63,-92.96 -29.45,-121.02 -111.51,-65.08 -156.18,97.43 -228.36,194.2 -139.39,186.9 -280.1,13.73 -312.42,3.8z"/>
  <path class="fil0" d="M912.89 201.35c-194.81,80.68 -74.04,389.03 130.53,309.78 160.46,-62.16 145.76,-365.14 -101.64,-318.96l-28.89 9.18z"/>
  <path class="fil0" d="M1357.61 1855.05l39.04 -1.1c37.59,-72.23 12.91,-452.38 12.91,-571.1 0,-259.08 25.79,-183.75 -62.88,-368.89 -38.99,-81.43 -11.11,-44 -78.81,-77.62 -10.79,68.46 -20.96,42.35 15.93,101.61 17.8,28.59 36.81,58.06 49.75,90.39 42.97,107.39 -26.17,717.75 24.06,826.71z"/>
  <path class="fil0" d="M558.13 1066.95c-0.08,105.62 -15.9,728.48 12.18,787.74l38.69 -0.61c36.24,-68.86 12.94,-431.71 12.94,-545.83 0,-230.67 -34.35,-191.33 55.94,-363.44 32.2,-61.37 34.33,-46.95 21.09,-107.65 -74.84,35.05 -37.13,5.02 -86.38,93.75 -28.41,51.18 -54.46,63.05 -54.46,136.04z"/>
  <path class="fil0" d="M379.25 495.71c-42.01,17.94 -125.22,40.92 -82.89,185.39 46.87,160.02 341.21,75.53 263.91,-110.37 -32.91,-79.15 -99.67,-109.76 -181.02,-75.02z"/>
  <path class="fil0" d="M1485.81 495.16c-174.76,74.49 -76.28,317.99 109.73,263.02 66.11,-19.54 103.62,-100.46 73.19,-191.23 -27.01,-80.53 -112.87,-101.64 -182.92,-71.79z"/>
  <path class="fil0" d="M965.22 1853.84c76.59,0.51 50.74,-60.45 50.72,-228.09 -0.01,-93.13 0.13,-186.27 -0.07,-279.4 -0.09,-65.68 13.71,-83.23 -23.22,-114.55 -69.95,4.88 -26.15,-14.91 -40.61,25.65 0.29,120.72 -21.27,522.03 13.18,596.39z"/>
  <path class="fil0" d="M418.69 1854.45c63.4,-18.83 38.48,-78.54 38.48,-241.4 0,-84.95 16.69,-217.38 -12.27,-280.45l-40.44 0.84c-25.39,56.74 -10.16,300.17 -11.84,407.05 -1.06,67.11 -12.48,84.43 26.07,113.96z"/>
  <path class="fil0" d="M1510.5 1854.77c37.46,-0.79 65.16,22.06 65.49,-88.31l-3.04 -392.81c-9.54,-37.6 -4.91,-35.91 -49.36,-41.27 -25.57,41.37 -12.88,473.65 -13.09,522.39z"/>
  <path class="fil1" d="M999.44 456.24c-12.56,-42.88 -10.53,-77.49 -7.85,-124.9 1.91,-33.95 1.65,-20.08 2.93,-46.24 1.17,-23.94 -1.97,-13.78 1.75,-31.17 -23.63,-16 -41.45,-6.19 -69.8,11.08 -24.63,15 -40.62,33.99 -47.23,70.16 -14.47,79.29 48.34,118.5 120.2,121.07z"/>
  <path class="fil2" d="M468.25 698.88c134.46,-200.92 -164.32,-183.08 -116.52,-48.93 17.59,49.34 54.8,47.47 116.52,48.93z"/>
  <path class="fil2" d="M1460.34 635.15c0,26.8 22.91,39.74 38.92,63.53 102.74,-1.32 114.54,-9.26 112.18,-114.23l-39.75 -36c-72,-0.51 -111.38,12.4 -111.35,86.7z"/>
  <path class="fil2" d="M999.44 456.24c40.1,-12.76 68.51,-31.01 82.58,-73.46 15.35,-46.32 -8.23,-76.93 -27.42,-114.17 -33.87,-9.47 -22.59,-7.25 -58.33,-14.68 -3.72,17.39 -0.58,7.23 -1.75,31.17 -1.28,26.16 -1.02,12.29 -2.93,46.24 -2.68,47.41 -4.71,82.02 7.85,124.9z"/>
 </g>
</svg>
